<?xml version="1.0" standalone="no"?>
<!DOCTYPE svg PUBLIC "-//W3C//DTD SVG 20010904//EN"
 "http://www.w3.org/TR/2001/REC-SVG-20010904/DTD/svg10.dtd">
<svg version="1.0" xmlns="http://www.w3.org/2000/svg"
 width="512.000000pt" height="512.000000pt" viewBox="0 0 512.000000 512.000000"
 preserveAspectRatio="xMidYMid meet">
<metadata>
Created by potrace 1.11, written by Peter Selinger 2001-2013
</metadata>
<g transform="translate(0.000000,512.000000) scale(0.100000,-0.100000)"
fill="#000000" stroke="none">
<path d="M1283 5094 c-7 -7 -13 -22 -13 -34 0 -11 -4 -20 -9 -20 -5 0 -7 -9
-4 -20 3 -11 1 -20 -4 -20 -5 0 -9 -8 -10 -17 -1 -10 -4 -27 -6 -38 -3 -11 -6
-28 -6 -38 -1 -10 -5 -16 -9 -13 -4 2 -8 -3 -8 -12 -1 -29 -12 -76 -24 -107
-6 -16 -11 -31 -11 -32 1 -2 1 -4 0 -5 0 -2 -3 -16 -5 -33 -3 -16 -9 -31 -14
-33 -5 -2 -6 -10 -3 -18 3 -8 -1 -14 -8 -14 -11 0 -11 -3 1 -10 11 -7 11 -10
2 -10 -7 0 -10 -5 -7 -10 4 -6 1 -18 -6 -26 -6 -8 -13 -27 -15 -42 -1 -15 -6
-38 -9 -52 -4 -14 -9 -37 -12 -52 -3 -15 -8 -26 -12 -24 -3 2 -6 -12 -7 -31 0
-19 -5 -38 -10 -41 -5 -4 -10 -20 -12 -37 -2 -16 -7 -32 -10 -35 -4 -3 -7 -14
-6 -25 0 -11 -3 -24 -7 -30 -4 -5 -10 -31 -14 -57 -4 -26 -10 -46 -14 -44 -4
3 -7 -3 -7 -12 -2 -34 -13 -74 -26 -90 -11 -13 -11 -15 2 -8 8 4 6 1 -4 -8
-10 -8 -23 -13 -27 -10 -5 3 -9 0 -9 -5 0 -6 -6 -11 -14 -11 -8 0 -36 -9 -63
-21 -26 -11 -56 -21 -65 -22 -10 -1 -18 -5 -18 -10 0 -4 -4 -6 -9 -2 -5 3 -12
1 -16 -5 -3 -5 -15 -10 -26 -10 -10 0 -19 -4 -19 -10 0 -5 -3 -9 -7 -8 -11 3
-86 -23 -100 -35 -7 -5 -13 -7 -13 -3 0 4 -14 -1 -31 -10 -17 -9 -43 -18 -56
-20 -14 -3 -36 -12 -49 -21 -13 -8 -24 -13 -24 -10 0 3 -17 -3 -37 -13 -28
-13 -40 -15 -45 -7 -5 8 -8 6 -8 -6 0 -10 -4 -16 -8 -13 -5 3 -21 -2 -36 -9
-16 -8 -32 -13 -36 -10 -5 3 -10 0 -12 -6 -2 -6 -15 -12 -30 -12 -14 -1 -24
-5 -22 -8 2 -4 -8 -10 -24 -14 -15 -4 -27 -5 -28 -3 0 2 -8 -3 -17 -11 -10 -7
-17 -10 -17 -7 0 4 -9 -2 -21 -13 -29 -27 -29 -124 0 -155 18 -20 19 -37 19
-249 0 -201 -2 -228 -17 -236 -9 -5 -19 -9 -23 -10 -5 -1 -8 -4 -9 -8 0 -5 -4
-12 -8 -18 -10 -13 -8 -86 3 -104 5 -7 108 -79 230 -158 121 -80 276 -182 343
-226 68 -44 123 -83 123 -86 0 -3 -57 -62 -125 -130 -69 -68 -125 -127 -126
-130 0 -3 -21 -23 -45 -43 -25 -21 -42 -38 -38 -38 4 0 -3 -9 -16 -20 -13 -11
-28 -20 -33 -20 -6 0 -8 -3 -4 -6 3 -4 -12 -22 -34 -40 -23 -19 -37 -34 -32
-34 4 -1 -3 -7 -17 -15 -14 -8 -21 -14 -17 -15 4 0 -4 -10 -19 -23 -19 -17
-28 -35 -30 -63 -1 -21 -10 -57 -19 -78 -43 -103 -52 -247 -20 -351 10 -33 18
-63 17 -67 -1 -5 2 -8 7 -8 5 0 14 -14 21 -30 7 -17 16 -30 21 -30 5 0 9 -7 9
-15 0 -8 5 -15 10 -15 6 0 10 -12 10 -26 0 -24 -2 -25 -17 -13 -16 13 -17 12
-4 -3 12 -16 10 -19 -10 -27 -16 -6 -18 -10 -8 -10 9 -1 22 5 28 13 29 35 69
-5 44 -44 -9 -14 -12 -22 -8 -17 5 4 17 -5 28 -20 10 -16 16 -20 13 -10 -4 12
-2 17 6 14 7 -2 12 -13 10 -23 -2 -11 1 -15 5 -9 4 6 18 11 31 11 18 1 22 -3
17 -20 -2 -11 -2 -15 1 -8 3 6 11 9 16 6 7 -4 8 -2 4 4 -4 7 -1 12 9 12 9 0
14 4 11 9 -3 4 -17 7 -31 6 -17 -2 -23 1 -18 8 3 7 3 9 -2 5 -4 -4 -14 -3 -22
3 -7 6 -13 8 -13 3 0 -11 -20 18 -20 29 0 4 5 7 11 7 5 0 7 -5 3 -11 -4 -7 -1
-10 7 -7 8 3 13 11 11 18 -3 11 0 11 12 0 18 -14 21 -21 7 -17 -5 1 -8 -2 -8
-8 1 -5 10 -11 20 -12 12 -2 16 1 11 9 -9 15 24 -9 44 -32 12 -13 13 -13 9 1
-4 13 -1 15 15 11 19 -5 20 -5 2 -16 -11 -6 -22 -11 -25 -11 -11 0 -40 -35
-29 -35 6 0 13 7 16 15 4 8 10 12 16 9 5 -3 4 -11 -3 -20 -7 -9 -8 -14 -1 -14
6 0 13 6 16 13 3 8 10 6 23 -9 15 -17 22 -19 34 -10 19 15 21 33 4 33 -7 0
-11 -6 -8 -14 3 -7 0 -13 -6 -13 -6 0 -11 6 -11 14 0 8 -5 18 -12 22 -7 4 -8
3 -4 -4 5 -8 1 -10 -9 -5 -13 4 -14 8 -4 14 7 4 17 5 21 3 4 -3 8 0 8 5 0 6 4
11 10 11 5 0 9 -6 7 -12 -1 -7 5 -12 14 -10 31 5 30 -27 -1 -60 -35 -37 -37
-44 -10 -53 11 -3 20 -11 20 -16 0 -5 7 -9 16 -9 10 0 14 -6 11 -14 -5 -11 0
-13 25 -6 16 5 37 15 46 22 10 9 13 9 9 1 -5 -8 0 -11 13 -10 22 1 25 8 9 24
-7 7 -6 12 4 16 8 3 14 0 13 -6 0 -7 3 -12 9 -12 5 0 9 3 8 7 -1 3 4 9 13 12
11 4 12 2 6 -12 -5 -9 -7 -24 -5 -32 4 -13 3 -13 -6 0 -7 9 -11 10 -11 3 0 -7
-9 -10 -21 -8 -12 3 -19 2 -16 -2 4 -3 2 -15 -4 -27 -9 -18 -8 -19 3 -6 15 18
44 19 41 2 -2 -7 2 -12 8 -12 6 0 9 6 6 14 -3 8 3 22 14 32 18 16 20 16 38 0
11 -10 26 -16 33 -13 8 4 7 6 -4 6 -21 1 -20 21 2 38 10 8 11 12 3 13 -6 0
-15 -5 -18 -10 -4 -6 -11 -7 -17 -4 -7 5 -8 2 -3 -6 6 -9 4 -11 -4 -5 -9 5
-10 10 -2 18 15 15 49 19 56 6 5 -7 12 -6 23 3 10 7 14 8 10 4 -4 -5 -2 -16 5
-24 10 -13 9 -14 -2 -7 -10 5 -12 4 -7 -3 10 -17 0 -15 -17 3 -13 13 -16 13
-21 -1 -3 -8 -2 -13 3 -10 15 10 22 -26 9 -42 -12 -13 -11 -14 9 -2 18 12 20
17 10 29 -10 12 -9 13 11 2 12 -7 20 -16 18 -20 -3 -4 0 -8 7 -9 7 0 23 -3 37
-6 18 -5 20 -4 7 2 -23 10 -23 20 0 37 13 9 22 10 30 3 7 -6 13 -7 13 -3 0 5
8 1 18 -8 12 -11 22 -13 28 -7 7 7 11 6 11 -4 0 -8 -4 -13 -9 -10 -4 3 -8 0
-8 -5 0 -6 -5 -11 -11 -11 -5 0 -8 4 -5 8 9 15 -19 9 -33 -6 -12 -12 -11 -13
10 -7 20 6 22 5 12 -6 -7 -7 -13 -17 -13 -23 0 -5 7 -1 16 10 11 13 14 14 11
3 -3 -9 1 -16 8 -16 7 0 10 8 8 17 -3 11 3 19 16 23 14 3 19 1 14 -6 -11 -16
-11 -67 -1 -61 5 3 6 10 3 15 -4 5 -1 9 4 9 6 0 11 5 11 11 0 5 -5 7 -10 4 -5
-3 -10 -2 -10 3 0 6 8 13 18 17 16 6 16 7 -1 20 -16 11 -16 13 -2 19 9 3 13 2
10 -3 -3 -5 -1 -12 5 -16 6 -4 8 -10 5 -15 -3 -5 -1 -11 5 -15 5 -3 10 1 10 9
0 8 5 18 12 22 8 5 9 2 5 -9 -4 -11 1 -20 13 -27 15 -8 20 -6 23 8 4 16 5 16
6 -1 0 -10 6 -15 11 -12 6 3 10 0 10 -7 0 -10 3 -9 11 2 9 12 10 12 5 -3 -3
-10 -6 -22 -6 -25 0 -4 -4 0 -10 8 -5 8 -13 11 -17 6 -4 -5 -2 -11 5 -13 6 -3
9 -10 5 -16 -5 -8 -2 -8 9 0 8 7 19 9 23 5 5 -4 5 -2 2 4 -4 6 0 20 8 30 15
19 15 19 8 0 -4 -12 -3 -17 4 -13 6 4 16 0 23 -8 9 -10 9 -15 1 -15 -6 0 -11
5 -11 10 0 6 -13 1 -30 -11 -16 -13 -27 -25 -25 -28 3 -2 11 1 17 7 14 14 62
16 53 2 -3 -5 -13 -7 -23 -4 -14 5 -14 4 -3 -4 8 -6 21 -8 29 -4 11 4 13 2 7
-9 -7 -11 -6 -12 7 -2 18 15 28 8 28 -21 1 -17 3 -15 15 9 13 29 16 29 19 3 0
-7 11 -14 23 -14 12 -1 20 2 17 7 -2 4 -12 6 -22 3 -12 -4 -13 -3 -5 3 7 5 26
8 43 7 16 -1 30 3 30 9 0 6 3 8 6 4 3 -3 1 -14 -5 -24 -7 -12 -10 -14 -11 -4
0 22 -10 7 -16 -25 l-5 -27 19 23 c13 16 21 20 26 12 4 -7 2 -12 -4 -12 -6 0
-8 -4 -5 -10 3 -5 14 -10 23 -10 15 0 15 2 2 10 -11 7 -7 10 19 10 27 0 32 3
27 18 -4 10 2 7 14 -8 12 -15 18 -18 14 -8 -3 10 -1 18 5 18 6 0 10 -6 8 -12
-1 -8 7 -13 21 -12 20 1 27 -7 23 -28 0 -5 4 -8 9 -8 5 0 9 -6 7 -12 -1 -7 5
-13 13 -13 8 0 20 -4 27 -8 6 -4 19 -4 28 -1 17 7 18 -15 0 -28 -5 -4 4 -6 20
-4 17 2 30 5 30 6 0 1 8 3 18 5 25 5 21 -2 -10 -19 -16 -8 -23 -15 -18 -15 6
-1 17 4 25 9 11 7 17 4 22 -13 l6 -22 1 23 c1 12 6 22 12 22 6 0 9 -6 6 -13
-3 -7 3 -13 13 -14 10 -1 21 5 24 13 3 8 2 13 -2 10 -13 -8 -35 11 -28 23 4 6
15 10 24 10 15 -1 15 -2 -1 -6 -9 -2 -15 -9 -12 -14 4 -5 14 -5 26 2 19 9 19
9 10 -10 -14 -25 -14 -34 -1 -26 6 3 10 1 10 -5 0 -7 7 -10 15 -7 8 4 17 2 20
-3 4 -6 1 -10 -5 -10 -6 0 -8 -5 -4 -11 5 -8 9 -8 14 1 6 9 11 7 20 -6 11 -18
11 -18 6 -1 -4 12 -2 17 6 14 7 -2 12 -13 10 -23 -2 -16 -1 -16 7 -4 6 9 6 19
1 24 -4 4 -6 15 -3 23 5 11 8 12 14 2 10 -16 39 -21 39 -6 0 8 3 8 11 0 16
-16 3 -33 -21 -28 -11 2 -22 -1 -26 -6 -9 -15 2 -22 18 -13 7 5 18 9 23 10 6
0 16 2 23 2 8 1 10 7 6 15 -4 6 -3 8 1 4 12 -10 16 -39 5 -32 -17 10 -19 -13
-3 -26 9 -8 18 -13 20 -11 1 1 9 2 16 2 9 0 9 -2 -1 -9 -20 -12 -57 -7 -54 8
1 7 -2 10 -8 6 -8 -5 -7 -11 1 -21 14 -17 54 -11 79 11 10 9 21 12 24 7 3 -6
-1 -12 -9 -16 -8 -3 -15 -11 -15 -18 0 -9 3 -9 10 2 9 13 11 13 21 0 9 -13 10
-12 5 3 -4 13 -1 17 12 15 21 -4 53 -48 45 -61 -3 -6 -1 -7 6 -3 6 4 9 12 6
17 -4 5 -1 9 4 9 6 0 11 4 11 10 0 5 -8 7 -17 4 -14 -4 -15 -3 -5 4 17 12 17
22 0 33 -20 13 -34 11 -20 -3 7 -7 12 -17 12 -23 0 -5 -5 -2 -11 8 -6 9 -14
15 -20 12 -5 -4 -9 -1 -9 5 0 6 -5 8 -11 5 -6 -4 -13 2 -16 14 -3 12 -9 21
-14 21 -5 0 -6 -8 -2 -17 5 -15 3 -14 -11 2 -13 16 -15 17 -10 3 3 -10 2 -18
-3 -18 -5 0 -9 8 -10 19 -1 15 5 18 31 18 28 -1 32 -4 29 -22 -4 -20 -4 -20
13 0 14 17 16 17 11 2 -8 -22 2 -22 20 1 8 9 12 12 9 6 -3 -7 5 -19 17 -27 21
-14 24 -13 34 1 10 15 11 15 10 -3 -1 -11 4 -20 11 -21 6 -1 15 -3 20 -4 4 -1
11 -2 15 -1 5 1 6 -3 3 -8 -3 -5 1 -14 8 -20 10 -8 16 -9 21 -1 3 5 1 10 -4
10 -6 0 -11 8 -11 18 1 16 1 16 11 -1 6 -10 15 -14 22 -10 7 4 6 0 -2 -10 -8
-10 -9 -17 -3 -17 6 0 14 5 17 11 5 6 12 4 20 -8 14 -19 10 -37 -6 -27 -5 3
-7 10 -4 15 4 5 1 9 -4 9 -24 0 0 -39 36 -59 13 -6 20 -17 17 -25 -3 -8 -1
-17 5 -21 7 -4 8 0 4 11 -4 12 -3 15 5 10 8 -5 10 -2 6 8 -3 9 -10 16 -16 16
-5 0 -7 4 -3 10 3 5 12 7 20 4 8 -4 13 -10 10 -14 -3 -5 -1 -11 4 -15 6 -3 8
-13 5 -23 -5 -14 -4 -14 4 -2 6 8 8 19 4 25 -12 18 -13 55 -2 55 6 0 9 -4 5
-9 -7 -12 15 -61 28 -61 5 0 5 6 -2 13 -6 8 -8 17 -4 20 3 4 1 7 -6 7 -7 0 -9
5 -5 11 4 8 9 7 15 -2 7 -12 9 -12 9 0 0 8 3 11 6 8 4 -4 1 -13 -5 -21 -10
-12 -9 -15 8 -13 15 1 20 6 16 17 -5 11 -3 12 6 3 6 -6 18 -9 25 -6 8 3 14 0
14 -7 0 -6 -4 -8 -10 -5 -5 3 -10 2 -10 -4 0 -5 -9 -8 -20 -6 -11 2 -20 0 -20
-6 0 -5 5 -9 11 -9 5 0 7 -5 3 -11 -3 -6 5 -3 20 6 23 16 26 16 26 1 0 -9 -8
-16 -17 -17 -13 0 -14 -2 -4 -6 8 -3 20 3 28 13 8 11 16 18 18 17 3 -2 8 -3
13 -2 4 0 -2 4 -13 9 -17 8 -17 9 7 7 15 -1 24 -5 22 -9 -3 -4 4 -8 15 -8 25
0 33 -12 19 -30 -8 -12 -9 -12 -4 3 4 13 0 17 -17 17 -18 0 -19 -2 -7 -10 8
-5 12 -10 8 -10 -8 0 40 -50 49 -50 3 0 0 7 -7 15 -9 11 -9 15 -1 15 6 0 14
-7 18 -16 3 -8 12 -13 19 -10 14 5 29 -9 17 -17 -5 -2 -3 -3 3 -1 6 1 18 -3
25 -9 11 -10 11 -9 0 6 -9 11 -10 17 -2 17 6 0 16 -9 23 -19 9 -16 15 -17 26
-9 10 9 15 9 21 -1 6 -9 10 -8 15 5 4 10 4 15 0 11 -4 -4 -13 -2 -21 4 -9 9
-13 8 -13 0 0 -6 -4 -11 -10 -11 -5 0 -9 6 -7 13 1 6 -4 11 -11 9 -8 -1 -11 1
-8 6 3 5 -6 8 -19 6 -17 -1 -23 2 -18 9 4 7 -2 5 -12 -3 -15 -12 -17 -12 -10
-1 6 10 4 12 -5 6 -8 -5 -11 -4 -6 3 4 6 -3 9 -20 7 -15 -1 -22 1 -16 7 12 12
54 19 47 8 -3 -5 -1 -11 5 -15 5 -3 10 1 10 9 0 8 4 17 9 20 5 4 7 -3 4 -14
-4 -15 -2 -19 10 -14 9 3 23 -3 33 -15 14 -15 21 -18 31 -9 18 14 42 -17 36
-46 -2 -15 -1 -17 4 -6 9 17 33 25 33 11 0 -5 -6 -11 -12 -14 -7 -2 -11 -7 -8
-10 3 -3 16 3 30 15 14 11 20 17 13 14 -6 -4 -14 -2 -18 4 -4 6 -10 8 -15 5
-4 -3 -10 2 -13 10 -4 10 -1 12 11 8 15 -6 16 -5 2 12 -14 17 -14 17 7 4 16
-9 19 -16 10 -21 -7 -4 -10 -8 -7 -9 3 0 19 -3 35 -5 29 -5 29 -5 10 11 -19
15 -18 15 11 1 24 -12 34 -12 44 -3 10 9 11 9 6 0 -5 -8 -1 -13 9 -13 9 0 13
4 10 10 -4 6 1 7 11 3 13 -5 15 -3 9 7 -5 9 -4 11 4 6 6 -4 8 -13 4 -19 -10
-16 -13 -41 -5 -32 4 4 7 12 7 18 1 7 6 11 12 10 6 -1 14 4 17 13 4 10 1 13
-7 9 -6 -4 -4 0 7 9 14 12 24 13 40 4 16 -8 18 -8 10 2 -9 9 -5 18 13 38 14
15 30 27 36 27 7 0 11 8 9 18 -2 9 1 17 5 17 5 0 17 16 27 35 10 19 23 32 28
29 5 -3 8 -2 7 3 -2 9 12 46 20 53 4 3 22 29 41 57 19 29 42 53 50 53 13 0 13
1 0 10 -13 8 -12 10 2 10 10 0 17 3 17 8 -3 19 2 33 11 27 6 -3 10 1 10 9 0
20 31 57 42 50 4 -3 5 1 2 9 -3 8 2 20 11 27 8 7 15 16 15 21 0 16 68 98 76
91 4 -4 5 -2 1 3 -3 6 5 27 17 47 18 29 25 35 35 25 9 -9 11 -6 9 13 -2 17 2
24 10 22 8 -1 11 2 8 7 -4 5 1 16 9 25 9 8 15 17 15 18 -3 9 14 38 22 38 5 0
7 -4 3 -9 -3 -5 -1 -12 4 -16 6 -3 8 4 6 17 -3 15 8 41 33 77 20 29 41 62 47
72 5 11 13 19 17 19 5 0 8 6 8 14 0 8 10 23 23 33 13 10 23 21 23 24 -1 9 136
203 146 207 4 2 6 7 4 11 -3 4 8 22 23 39 16 17 26 33 23 36 -3 3 -1 6 5 6 6
0 13 9 16 21 3 12 10 18 17 14 6 -3 10 -3 9 2 -4 15 19 58 45 86 14 15 26 30
26 33 0 2 19 32 43 65 23 33 47 69 53 80 6 10 14 16 17 12 4 -3 7 -2 7 4 0 6
21 22 48 36 26 14 126 68 222 120 l174 95 29 -24 c36 -30 40 -30 88 4 44 31
48 46 18 63 -26 14 -23 16 81 74 98 54 90 47 94 71 3 11 13 39 25 64 11 25 20
48 21 52 0 4 7 23 15 42 46 110 32 304 -30 430 -25 50 -32 100 -17 110 8 5 3
61 -9 106 -5 19 -25 40 -38 40 -6 0 -11 4 -11 9 0 5 -8 7 -18 5 -16 -5 -17 7
-17 159 1 156 2 165 25 197 19 26 25 48 26 95 0 33 -4 66 -9 73 -5 6 -6 12 -2
12 11 0 -48 50 -60 51 -5 0 -19 2 -30 5 -27 5 -97 16 -112 17 -7 0 -13 4 -13
8 0 4 -8 7 -17 7 -10 -1 -34 2 -53 5 -87 16 -122 23 -160 32 -14 3 -40 7 -59
10 -18 2 -41 7 -50 9 -9 3 -34 8 -56 11 -45 7 -70 13 -70 15 0 1 -11 3 -25 4
-14 2 -43 7 -65 11 -22 4 -44 8 -50 9 -5 1 -14 4 -20 7 -5 3 -20 4 -32 3 -13
0 -23 3 -23 8 0 5 -4 7 -8 4 -4 -3 -26 -1 -48 4 -56 13 -107 22 -121 23 -7 0
-13 5 -13 11 0 8 -3 7 -8 0 -5 -8 -15 -8 -32 -2 -14 6 -43 12 -65 14 -22 2
-47 7 -55 11 -15 6 -27 8 -82 14 -16 2 -28 6 -28 9 0 3 -21 6 -47 8 -26 1 -51
8 -55 15 -4 6 -8 8 -8 2 -1 -10 -21 29 -25 50 -1 6 -12 30 -23 55 -12 25 -22
54 -24 65 -2 11 -6 22 -10 25 -3 3 -8 14 -10 25 -1 11 -6 22 -9 25 -6 6 -47
109 -51 130 -5 26 -26 40 -83 58 -31 10 -52 22 -48 27 4 4 2 5 -5 1 -7 -4 -43
3 -80 15 -74 26 -75 26 -98 28 -8 0 -13 5 -9 10 3 6 -4 8 -15 6 -11 -2 -20 1
-20 6 0 6 -4 8 -8 5 -5 -3 -32 4 -60 14 -29 11 -52 17 -52 14 0 -4 -6 -1 -14
5 -8 7 -25 14 -37 16 -13 3 -33 9 -44 14 -30 13 -279 91 -293 91 -7 0 -12 4
-12 8 0 4 -12 9 -27 10 -15 1 -32 7 -37 12 -6 6 -20 10 -33 10 -13 0 -23 4
-23 8 0 4 -12 9 -26 10 -15 1 -33 7 -40 13 -8 6 -14 8 -14 4 0 -4 -7 -1 -17 6
-9 8 -17 13 -17 11 -2 -6 -61 11 -73 21 -7 5 -13 7 -13 4 0 -4 -127 36 -220
69 -8 3 -16 5 -18 5 -1 -1 -17 5 -36 13 -19 8 -37 12 -40 8 -3 -3 -6 0 -6 7 0
7 -5 9 -10 6 -6 -4 -16 -3 -23 3 -7 5 -34 15 -62 22 -27 7 -56 17 -62 23 -7 5
-13 6 -13 3 0 -4 -10 -1 -22 6 -21 11 -37 15 -75 20 -7 1 -13 5 -13 10 0 4 -7
8 -15 8 -24 0 -125 34 -125 42 0 4 -7 5 -15 2 -8 -4 -21 -2 -28 3 -18 14 -50
13 -64 -3z m-950 -3979 c4 -8 1 -17 -5 -21 -7 -4 -8 -3 -4 4 4 7 2 12 -4 12
-6 0 -8 5 -5 10 8 14 12 13 18 -5z m558 -187 c1 -7 0 -20 -1 -27 -1 -13 1 -13
14 -2 9 7 13 18 9 24 -4 6 -1 7 6 3 9 -6 9 -12 -3 -25 -9 -10 -13 -21 -9 -24
3 -4 2 -7 -4 -7 -6 0 -16 7 -24 16 -10 13 -10 17 2 25 10 6 10 9 2 9 -7 0 -13
5 -13 10 0 15 20 12 21 -2z m384 -128 c-3 -5 1 -20 9 -32 9 -12 16 -17 16 -10
0 6 7 12 15 12 8 0 15 -6 15 -12 0 -9 4 -8 10 2 6 9 10 10 10 3 0 -17 -17 -25
-25 -13 -5 8 -11 8 -20 0 -10 -8 -16 -7 -24 7 -8 14 -10 15 -11 3 0 -13 -2
-13 -9 -1 -9 14 2 51 15 51 3 0 2 -4 -1 -10z m109 -51 c-3 -5 -10 -7 -15 -3
-5 3 -7 10 -3 15 3 5 10 7 15 3 5 -3 7 -10 3 -15z m56 -24 c-8 -10 -9 -15 -2
-15 6 0 15 8 21 18 9 15 10 15 8 -4 -1 -18 -19 -24 -46 -15 -5 1 20 31 26 31
3 0 0 -7 -7 -15z m163 -68 c-4 -6 0 -8 9 -4 21 8 56 -17 39 -28 -7 -4 -17 -3
-23 3 -6 6 -16 8 -23 5 -9 -3 -12 2 -11 14 2 10 -2 25 -8 33 -10 13 -9 13 6 1
10 -7 15 -18 11 -24z m67 3 c0 -5 -2 -10 -4 -10 -3 0 -8 5 -11 10 -3 6 -1 10
4 10 6 0 11 -4 11 -10z m20 -25 c0 -8 -4 -15 -10 -15 -5 0 -7 7 -4 15 4 8 8
15 10 15 2 0 4 -7 4 -15z m67 -17 c8 -1 9 -7 2 -20 -12 -21 -21 -24 -13 -4 7
17 -37 18 -48 2 -5 -7 -11 -7 -20 2 -9 9 -9 12 5 12 9 0 17 4 17 9 0 6 10 7
23 5 12 -3 27 -6 34 -6z m131 -53 c4 -4 1 -5 -5 -1 -7 4 -13 2 -13 -3 0 -6 7
-11 15 -11 8 0 15 5 15 12 0 6 3 8 6 5 4 -4 1 -13 -6 -22 -12 -14 -15 -14 -32
2 -11 10 -23 17 -26 15 -4 -2 -8 1 -10 7 -4 11 44 8 56 -4z m142 -81 c0 -8
-19 -13 -24 -6 -3 5 1 9 9 9 8 0 15 -2 15 -3z m347 -88 c-1 -6 3 -10 9 -9 6 1
11 -5 11 -13 0 -7 -3 -12 -5 -9 -3 3 -11 0 -18 -6 -7 -6 -18 -7 -25 -3 -8 5
-7 10 5 16 12 7 14 13 7 22 -8 9 -7 13 4 13 7 0 13 -5 12 -11z"/>
<path d="M1627 639 c7 -7 15 -10 18 -7 3 3 -2 9 -12 12 -14 6 -15 5 -6 -5z"/>
<path d="M216 1182 c-3 -5 1 -9 9 -9 8 0 12 4 9 9 -3 4 -7 8 -9 8 -2 0 -6 -4
-9 -8z"/>
<path d="M261 1148 c-6 -10 -7 -18 -2 -18 5 0 11 6 14 13 2 6 7 9 11 5 4 -3 0
-19 -10 -35 l-17 -28 25 30 c26 30 28 52 4 52 -7 0 -18 -9 -25 -19z"/>
<path d="M285 1080 c3 -5 8 -10 11 -10 2 0 4 5 4 10 0 6 -5 10 -11 10 -5 0 -7
-4 -4 -10z"/>
<path d="M366 1042 c-3 -5 1 -9 9 -9 8 0 15 4 15 9 0 4 -4 8 -9 8 -6 0 -12 -4
-15 -8z"/>
<path d="M427 999 c7 -7 15 -10 18 -7 3 3 -2 9 -12 12 -14 6 -15 5 -6 -5z"/>
<path d="M476 1002 c-3 -5 1 -9 9 -9 8 0 12 4 9 9 -3 4 -7 8 -9 8 -2 0 -6 -4
-9 -8z"/>
<path d="M634 889 c-4 -7 -3 -9 4 -5 5 3 13 0 15 -6 4 -9 6 -10 6 -1 1 17 -16
25 -25 12z"/>
<path d="M934 889 c-9 -15 17 -30 32 -19 6 6 13 9 15 7 2 -1 3 0 1 3 -2 3 -7
5 -10 5 -4 0 -12 4 -19 8 -6 4 -15 2 -19 -4z"/>
<path d="M746 882 c-3 -5 1 -9 9 -9 8 0 15 4 15 9 0 4 -4 8 -9 8 -6 0 -12 -4
-15 -8z"/>
<path d="M1067 830 c8 -9 9 -18 3 -25 -7 -8 -5 -12 5 -12 8 0 12 4 9 9 -3 4
-1 8 4 8 17 0 21 -13 11 -34 -9 -19 -9 -19 4 -3 8 9 19 17 25 17 14 0 23 26 9
28 -41 6 -54 9 -67 16 -12 7 -13 6 -3 -4z m58 -28 c-3 -3 -11 0 -18 7 -9 10
-8 11 6 5 10 -3 15 -9 12 -12z"/>
<path d="M1141 764 c0 -11 3 -14 6 -6 3 7 2 16 -1 19 -3 4 -6 -2 -5 -13z"/>
<path d="M1220 720 c-9 -6 -10 -10 -3 -10 6 0 15 5 18 10 8 12 4 12 -15 0z"/>
<path d="M1348 693 c7 -3 16 -2 19 1 4 3 -2 6 -13 5 -11 0 -14 -3 -6 -6z"/>
<path d="M1469 670 c-13 -11 -18 -19 -11 -20 6 0 12 5 12 10 0 24 50 1 64 -30
3 -9 4 -5 2 7 -2 13 -1 25 4 28 10 6 22 -24 14 -36 -3 -5 0 -9 5 -9 12 0 11
49 -1 51 -4 1 -16 2 -25 3 -10 1 -23 5 -29 9 -7 4 -23 -2 -35 -13z"/>
<path d="M1355 671 c-3 -5 -2 -12 3 -15 5 -3 9 1 9 9 0 17 -3 19 -12 6z"/>
<path d="M1466 598 c3 -5 10 -6 15 -3 13 9 11 12 -6 12 -8 0 -12 -4 -9 -9z"/>
<path d="M1598 603 c7 -3 16 -2 19 1 4 3 -2 6 -13 5 -11 0 -14 -3 -6 -6z"/>
<path d="M1630 591 c0 -7 -5 -9 -12 -5 -7 5 -8 3 -3 -5 5 -9 10 -10 18 -2 6 6
8 14 4 18 -4 3 -7 1 -7 -6z"/>
<path d="M1639 553 c-13 -16 -12 -17 4 -4 16 13 21 21 13 21 -2 0 -10 -8 -17
-17z"/>
<path d="M1695 540 c3 -5 8 -10 11 -10 2 0 4 5 4 10 0 6 -5 10 -11 10 -5 0 -7
-4 -4 -10z"/>
<path d="M1773 523 c0 -9 6 -9 21 -1 30 15 30 16 3 14 -13 0 -24 -6 -24 -13z"/>
<path d="M1830 521 c0 -6 4 -13 10 -16 6 -3 7 1 4 9 -7 18 -14 21 -14 7z"/>
<path d="M1955 480 c-3 -5 -2 -10 4 -10 5 0 13 5 16 10 3 6 2 10 -4 10 -5 0
-13 -4 -16 -10z"/>
<path d="M2184 431 c13 -14 13 -20 3 -31 -10 -10 -9 -11 3 -4 33 19 47 12 40
-21 -1 -5 4 -4 11 3 19 17 34 15 19 -3 -10 -13 -11 -18 -1 -28 10 -9 11 -8 6
4 -9 23 10 32 25 14 7 -8 18 -15 24 -15 6 0 4 6 -5 13 -9 7 -17 15 -17 20 -1
4 -5 7 -8 6 -3 -1 -19 11 -34 26 -15 15 -31 27 -34 26 -3 -1 -7 -1 -8 0 -2 0
-11 2 -21 4 -17 3 -17 2 -3 -14z m36 -6 c0 4 7 2 15 -5 8 -7 15 -18 15 -24 0
-6 -5 -3 -11 7 -6 9 -14 15 -18 12 -5 -2 -15 3 -22 13 -13 15 -12 16 4 3 9 -7
17 -10 17 -6z"/>
<path d="M2112 420 c2 -9 -3 -14 -12 -12 -8 2 -11 0 -7 -4 13 -14 35 -12 33 2
-1 7 -6 17 -10 21 -4 4 -6 1 -4 -7z"/>
<path d="M2199 388 c-6 -22 -5 -38 3 -38 6 0 8 6 5 14 -3 8 -1 17 6 20 9 3 9
5 0 5 -7 1 -13 0 -14 -1z"/>
<path d="M2315 329 c-4 -6 -5 -12 -2 -15 2 -3 7 2 10 11 7 17 1 20 -8 4z"/>
<path d="M2562 298 c-16 -16 -15 -28 2 -28 9 0 14 9 13 20 -1 11 -2 20 -2 20
-1 0 -6 -5 -13 -12z"/>
<path d="M2430 293 c0 -1 8 -7 18 -12 13 -7 19 -6 19 2 0 7 -9 13 -19 13 -10
0 -18 -1 -18 -3z"/>
<path d="M2520 266 c0 -2 7 -7 16 -10 8 -3 12 -2 9 4 -6 10 -25 14 -25 6z"/>
<path d="M2581 244 c0 -11 3 -14 6 -6 3 7 2 16 -1 19 -3 4 -6 -2 -5 -13z"/>
<path d="M3050 240 c0 -5 5 -10 11 -10 5 0 7 5 4 10 -3 6 -8 10 -11 10 -2 0
-4 -4 -4 -10z"/>
<path d="M2900 199 c-12 -9 -12 -10 4 -5 13 4 17 2 13 -7 -3 -8 1 -14 8 -14 7
0 10 8 7 19 -5 21 -11 22 -32 7z"/>
<path d="M2946 197 c3 -10 9 -15 12 -12 3 3 0 11 -7 18 -10 9 -11 8 -5 -6z"/>
<path d="M2675 189 c-4 -6 -5 -12 -2 -15 2 -3 7 2 10 11 7 17 1 20 -8 4z"/>
<path d="M2770 180 c0 -5 5 -10 11 -10 5 0 7 5 4 10 -3 6 -8 10 -11 10 -2 0
-4 -4 -4 -10z"/>
<path d="M2870 169 c0 -5 -5 -7 -12 -3 -7 4 -8 3 -4 -5 6 -9 12 -9 24 1 10 7
19 14 21 15 2 2 -3 3 -12 3 -9 0 -17 -5 -17 -11z"/>
</g>
</svg>
